<?xml version="1.0" encoding="utf-8"?>
<!-- Generator: Adobe Illustrator 17.1.0, SVG Export Plug-In . SVG Version: 6.00 Build 0)  -->
<!DOCTYPE svg PUBLIC "-//W3C//DTD SVG 1.1//EN" "http://www.w3.org/Graphics/SVG/1.1/DTD/svg11.dtd">
<svg version="1.1" id="Слой_1" xmlns="http://www.w3.org/2000/svg" xmlns:xlink="http://www.w3.org/1999/xlink" x="0px" y="0px"
	 viewBox="0 0 48 48" enable-background="new 0 0 48 48" xml:space="preserve">
<g>
	<path d="M47.3,48H1.4v-6h45.9V48z M3,46.5h42.7v-3H3V46.5z"/>
	<path d="M15.9,22.5v-5.3H5.4v5.3H7v15.8H5.4v5.3h10.5v-5.3h-1.6V22.5H15.9z M7,18.7h7.3V21H7V18.7z M14.3,42H7v-2.3h7.3V42z
		 M12.7,38.2h-4V22.5h4V38.2z"/>
	<path d="M29.6,22.5v-5.3H19.1v5.3h1.6v15.8h-1.6v5.3h10.5v-5.3H28V22.5H29.6z M20.7,18.7H28V21h-7.3V18.7z M28,42h-7.3v-2.3H28V42z
		 M26.4,38.2h-4V22.5h4V38.2z"/>
	<path d="M43.3,22.5v-5.3H32.8v5.3h1.6v15.8h-1.6v5.3h10.5v-5.3h-1.6V22.5H43.3z M34.4,18.7h7.3V21h-7.3V18.7z M41.7,42h-7.3v-2.3
		h7.3L41.7,42L41.7,42z M40.1,38.2h-4V22.5h4V38.2z"/>
	<path d="M27.6,0.8C26.8,0.3,25.6,0,24.3,0C23,0,21.9,0.3,21,0.8L2,12.7l-0.2,0.1l0,0l-0.4,0.3v5.6h45.9v-5.6L27.6,0.8z M21.9,2
		c0.6-0.3,1.5-0.5,2.4-0.5s1.8,0.2,2.3,0.5l17.2,10.7H4.8L21.9,2z M3,17.2v-3h42.7v3H3z"/>
</g>
</svg>
