<?xml version="1.0" encoding="utf-8"?>
<!-- Generator: Adobe Illustrator 17.1.0, SVG Export Plug-In . SVG Version: 6.00 Build 0)  -->
<!DOCTYPE svg PUBLIC "-//W3C//DTD SVG 1.1//EN" "http://www.w3.org/Graphics/SVG/1.1/DTD/svg11.dtd">
<svg version="1.1" id="Слой_1" xmlns="http://www.w3.org/2000/svg" xmlns:xlink="http://www.w3.org/1999/xlink" x="0px" y="0px"
	 viewBox="0 0 48 48" enable-background="new 0 0 48 48" xml:space="preserve">
<g>
	<g>
		<path fill="#0C0C0C" d="M45,40.2H3c-1.7,0-3-1.3-3-3V10.8c0-1.7,1.3-3,3-3h42c1.7,0,3,1.3,3,3v26.4C48,38.9,46.7,40.2,45,40.2z
			 M3,10c-0.4,0-0.8,0.4-0.8,0.8v26.4C2.2,37.7,2.6,38,3,38h42c0.4,0,0.8-0.4,0.8-0.8V10.8c0-0.4-0.4-0.8-0.8-0.8H3z"/>
	</g>
	<g>
		<g>
			<path fill="#0C0C0C" d="M33.8,23.4c-2.7,0-4.9-2.2-4.9-4.9c0-2.7,2.2-4.9,4.9-4.9c1.1,0,2.2,0.4,3.1,1.1c0.3,0.2,0.4,0.5,0.4,0.8
				s-0.1,0.6-0.4,0.9c-0.6,0.5-1,1.3-1,2.1c0,0.8,0.3,1.6,1,2.1c0.2,0.2,0.4,0.5,0.4,0.9c0,0.3-0.2,0.6-0.4,0.8
				C36.1,23,34.9,23.4,33.8,23.4z M33.8,15.8c-1.5,0-2.7,1.2-2.7,2.7c0,1.5,1.2,2.7,2.7,2.7c0.2,0,0.5,0,0.7-0.1
				c-0.5-0.8-0.7-1.7-0.7-2.6c0-0.9,0.3-1.8,0.7-2.6C34.3,15.8,34.1,15.8,33.8,15.8z"/>
			<path fill="#0C0C0C" d="M38.7,23.4c-2.7,0-4.9-2.2-4.9-4.9c0-2.7,2.2-4.9,4.9-4.9c2.7,0,4.9,2.2,4.9,4.9
				C43.6,21.2,41.4,23.4,38.7,23.4z M38.7,15.8c-1.5,0-2.7,1.2-2.7,2.7c0,1.5,1.2,2.7,2.7,2.7c1.5,0,2.7-1.2,2.7-2.7
				C41.4,17,40.2,15.8,38.7,15.8z"/>
		</g>
		<g>
			<path fill="#0C0C0C" d="M9.5,34.4H5.6c-0.6,0-1.1-0.5-1.1-1.1s0.5-1.1,1.1-1.1h3.9c0.6,0,1.1,0.5,1.1,1.1S10.2,34.4,9.5,34.4z"/>
			<path fill="#0C0C0C" d="M17.3,34.4h-3.9c-0.6,0-1.1-0.5-1.1-1.1s0.5-1.1,1.1-1.1h3.9c0.6,0,1.1,0.5,1.1,1.1S17.9,34.4,17.3,34.4z
				"/>
			<path fill="#0C0C0C" d="M25.1,34.4h-3.9c-0.6,0-1.1-0.5-1.1-1.1s0.5-1.1,1.1-1.1h3.9c0.6,0,1.1,0.5,1.1,1.1S25.7,34.4,25.1,34.4z
				"/>
			<path fill="#0C0C0C" d="M32.8,34.4h-3.9c-0.6,0-1.1-0.5-1.1-1.1s0.5-1.1,1.1-1.1h3.9c0.6,0,1.1,0.5,1.1,1.1S33.4,34.4,32.8,34.4z
				"/>
			<path fill="#0C0C0C" d="M40.6,34.4h-4c-0.6,0-1.1-0.5-1.1-1.1s0.5-1.1,1.1-1.1h4c0.6,0,1.1,0.5,1.1,1.1S41.2,34.4,40.6,34.4z"/>
		</g>
		<path fill="#0C0C0C" d="M15.3,17.6H6.4c-0.6,0-1.1-0.5-1.1-1.1c0-0.6,0.5-1.1,1.1-1.1h8.9c0.6,0,1.1,0.5,1.1,1.1
			C16.4,17.1,15.9,17.6,15.3,17.6z"/>
		<path fill="#0C0C0C" d="M22,21.8H6.4c-0.6,0-1.1-0.5-1.1-1.1s0.5-1.1,1.1-1.1H22c0.6,0,1.1,0.5,1.1,1.1S22.7,21.8,22,21.8z"/>
	</g>
</g>
</svg>
