<?xml version="1.0" encoding="utf-8"?>
<!-- Generator: Adobe Illustrator 17.1.0, SVG Export Plug-In . SVG Version: 6.00 Build 0)  -->
<!DOCTYPE svg PUBLIC "-//W3C//DTD SVG 1.1//EN" "http://www.w3.org/Graphics/SVG/1.1/DTD/svg11.dtd">
<svg version="1.1" id="Слой_1" xmlns="http://www.w3.org/2000/svg" xmlns:xlink="http://www.w3.org/1999/xlink" x="0px" y="0px"
	 viewBox="0 0 48 48" enable-background="new 0 0 48 48" xml:space="preserve">
<g>
	<path id="path3251_1_" d="M21,21.3c-1.4-1.4-0.7-4.1,1.2-6c0.9-0.9,1.9-1.5,3-1.8c1-0.3,2.2-0.2,3,0.6c1.4,1.4,0.7,4.1-1.2,6
		c-0.9,0.9-1.9,1.5-3,1.8C23.1,22.1,21.9,22.1,21,21.3z M23.5,19.8c0.6-0.2,1.3-0.6,2-1.3c0.7-0.7,1.1-1.4,1.2-2
		c0.2-0.6,0-0.9,0-0.9c-0.1-0.1-0.3-0.2-0.9,0c-0.6,0.2-1.3,0.6-2,1.3c-0.7,0.7-1.1,1.4-1.2,2c-0.2,0.6,0,0.9,0,0.9
		C22.6,19.8,22.9,19.9,23.5,19.8z"/>
	<path id="path3253_1_" d="M2.9,42.6V18.3c0-3.3,1.7-5.2,3.5-6.1L28.9,1.1l0.5-0.3C31,0.1,33.7-0.5,35,0.6c0.4,0.3,0.7,0.8,0.8,1.4
		l0,0.4l0,25.4c0,1.7-0.7,3-2.1,3.9L33,32l-21.3,9.8l-0.1,0c-0.1,0-0.2,0.1-0.2,0.2l0,0.1l0.3,0c0.3,0,0.7-0.1,1.5-0.3l22.5-7.2
		c1.2-0.5,1.6-0.7,1.8-1.1c0.3-0.5,0.4-1.4,0.4-3.5l0-15.7c0-0.6,0.4-1,1-1.1c2.9-0.3,7.7,0.7,7.6,5.1l0,24.4
		c0.1,3.4-1.9,5.3-5.5,5.3H8.4C4.9,48,2.9,46.1,2.9,42.6z M44.1,42.7l0.1-24.4c0-1.7-1.5-2.6-3.3-2.9l-0.9,0l0,14.6
		c0,2-0.1,3.5-0.6,4.5c-0.6,1.2-1.7,1.7-3,2.2l-22.5,7.2l-0.1,0c-1.4,0.4-2.5,0.5-3.3,0.2C10,44,9.7,43.8,9.5,43.5
		c-0.1-0.1-0.2-0.2-0.2-0.3c-0.1-0.1-0.1-0.2-0.1-0.3c-0.3-1,0.1-2.1,0.8-2.7l0.7-0.4L32.1,30c1.1-0.4,1.4-1.1,1.5-2.2V2.3l-0.2-0.1
		C32.8,2.1,31,2.3,30,3L29.9,3L7.3,14.2c-1.1,0.5-2.3,1.7-2.3,4.1v24.3c0,2.2,1,3.2,3.3,3.2h32.4C43.2,45.8,44.1,44.9,44.1,42.7z"/>
</g>
</svg>
