<?xml version="1.0" encoding="utf-8"?>
<!-- Generator: Adobe Illustrator 17.1.0, SVG Export Plug-In . SVG Version: 6.00 Build 0)  -->
<!DOCTYPE svg PUBLIC "-//W3C//DTD SVG 1.1//EN" "http://www.w3.org/Graphics/SVG/1.1/DTD/svg11.dtd">
<svg version="1.1" id="Слой_1" xmlns="http://www.w3.org/2000/svg" xmlns:xlink="http://www.w3.org/1999/xlink" x="0px" y="0px"
	 viewBox="0 0 48 48" enable-background="new 0 0 48 48" xml:space="preserve">
<path d="M33.6,47.7H15.1c-2.3,0-4.1-1.8-4.1-4.1V4.4c0-2.3,1.8-4.1,4.1-4.1h18.5c2.3,0,4.1,1.8,4.1,4.1v39.1
	C37.7,45.8,35.9,47.7,33.6,47.7z M35.7,4.4c0-1.1-0.9-2.1-2.1-2.1H15.1c-1.1,0-2.1,0.9-2.1,2.1v4.1h22.6V4.4z M35.7,10.6H13v26.8
	h22.6V10.6z M35.7,39.4H13v4.1c0,1.1,0.9,2.1,2.1,2.1h18.5c1.1,0,2.1-0.9,2.1-2.1V39.4z M24.3,44.6c-1.1,0-2.1-0.9-2.1-2.1
	c0-1.1,0.9-2.1,2.1-2.1c1.1,0,2.1,0.9,2.1,2.1C26.4,43.7,25.5,44.6,24.3,44.6z M17.1,13.7h2.1c0.6,0,1,0.5,1,1v2.1c0,0.6-0.5,1-1,1
	h-2.1c-0.6,0-1-0.5-1-1v-2.1C16.1,14.2,16.6,13.7,17.1,13.7z M17.1,20.9h2.1c0.6,0,1,0.5,1,1V24c0,0.6-0.5,1-1,1h-2.1
	c-0.6,0-1-0.5-1-1v-2.1C16.1,21.4,16.6,20.9,17.1,20.9z M17.1,28.1h2.1c0.6,0,1,0.5,1,1v2.1c0,0.6-0.5,1-1,1h-2.1c-0.6,0-1-0.5-1-1
	v-2.1C16.1,28.6,16.6,28.1,17.1,28.1z M23.3,13.7h2.1c0.6,0,1,0.5,1,1v2.1c0,0.6-0.5,1-1,1h-2.1c-0.6,0-1-0.5-1-1v-2.1
	C22.3,14.2,22.7,13.7,23.3,13.7z M23.3,20.9h2.1c0.6,0,1,0.5,1,1V24c0,0.6-0.5,1-1,1h-2.1c-0.6,0-1-0.5-1-1v-2.1
	C22.3,21.4,22.7,20.9,23.3,20.9z M23.3,28.1h2.1c0.6,0,1,0.5,1,1v2.1c0,0.6-0.5,1-1,1h-2.1c-0.6,0-1-0.5-1-1v-2.1
	C22.3,28.6,22.7,28.1,23.3,28.1z M29.5,13.7h2.1c0.6,0,1,0.5,1,1v2.1c0,0.6-0.5,1-1,1h-2.1c-0.6,0-1-0.5-1-1v-2.1
	C28.5,14.2,28.9,13.7,29.5,13.7z M29.5,20.9h2.1c0.6,0,1,0.5,1,1V24c0,0.6-0.5,1-1,1h-2.1c-0.6,0-1-0.5-1-1v-2.1
	C28.5,21.4,28.9,20.9,29.5,20.9z M21.2,4.4h6.2c0.6,0,1,0.5,1,1s-0.5,1-1,1h-6.2c-0.6,0-1-0.5-1-1S20.7,4.4,21.2,4.4z"/>
</svg>
