<?xml version="1.0" encoding="utf-8"?>
<!-- Generator: Adobe Illustrator 17.1.0, SVG Export Plug-In . SVG Version: 6.00 Build 0)  -->
<!DOCTYPE svg PUBLIC "-//W3C//DTD SVG 1.1//EN" "http://www.w3.org/Graphics/SVG/1.1/DTD/svg11.dtd">
<svg version="1.1" id="Слой_1" xmlns="http://www.w3.org/2000/svg" xmlns:xlink="http://www.w3.org/1999/xlink" x="0px" y="0px"
	 viewBox="0 0 48 48" enable-background="new 0 0 48 48" xml:space="preserve">
<g id="Icons_1_">
	<g>
		<path fill="#0C0C0C" d="M42.1,40.6H5.9c-2.8,0-5.2-2.3-5.2-5.2V7c0-2.8,2.3-5.2,5.2-5.2h36.2c2.8,0,5.1,2.3,5.1,5.2v28.5
			C47.3,38.3,45,40.6,42.1,40.6z M5.9,4.3C4.4,4.3,3.2,5.5,3.2,7v28.5c0,1.5,1.2,2.7,2.7,2.7h36.2c1.5,0,2.7-1.2,2.7-2.7V7
			c0-1.5-1.2-2.7-2.7-2.7H5.9z"/>
		<path fill="#0C0C0C" d="M39,46.2H9c-2,0-3.7-1.2-4.2-3.1c-0.2-0.7,0.2-1.3,0.8-1.5c0.7-0.2,1.3,0.2,1.5,0.8c0.2,0.8,1,1.4,1.9,1.4
			h30c0.8,0,1.6-0.6,1.9-1.4c0.2-0.7,0.9-1,1.5-0.8c0.7,0.2,1,0.9,0.8,1.5C42.6,44.9,40.9,46.2,39,46.2z"/>
		<path fill="#0C0C0C" d="M31.2,32.7c-0.3,0-0.5-0.1-0.7-0.2L24,27.7l-6.5,4.7c-0.4,0.3-1,0.3-1.5,0c-0.4-0.3-0.6-0.9-0.4-1.4
			l2.5-7.7l-6.5-4.7c-0.4-0.3-0.6-0.9-0.4-1.4c0.2-0.5,0.6-0.9,1.2-0.9h8.1l2.5-7.7C23,8.3,23.5,7.9,24,7.9s1,0.3,1.2,0.9l2.5,7.7
			h8.1c0.5,0,1,0.3,1.2,0.9c0.2,0.5,0,1.1-0.4,1.4l-6.5,4.7l2.5,7.7c0.2,0.5,0,1.1-0.4,1.4C31.8,32.6,31.5,32.7,31.2,32.7z M24,25
			c0.3,0,0.5,0.1,0.7,0.2l4.2,3l-1.6-4.9c-0.2-0.5,0-1.1,0.4-1.4l4.2-3h-5.2c-0.5,0-1-0.3-1.2-0.9L24,13.1l-1.6,4.9
			c-0.2,0.5-0.6,0.9-1.2,0.9h-5.2l4.2,3c0.4,0.3,0.6,0.9,0.4,1.4l-1.6,4.9l4.2-3C23.5,25,23.7,25,24,25z"/>
		<path fill="#0C0C0C" d="M42,43.9H6c-0.7,0-1.2-0.6-1.2-1.2s0.6-1.2,1.2-1.2h36c0.7,0,1.2,0.6,1.2,1.2S42.7,43.9,42,43.9z"/>
	</g>
</g>
</svg>
